<svg xmlns="http://www.w3.org/2000/svg" xmlns:xlink="http://www.w3.org/1999/xlink" width="2076.244" height="519.026"><linearGradient id="a" gradientUnits="userSpaceOnUse"><stop offset="0" stop-color="#191d23"/><stop offset="1" stop-color="#05070a"/></linearGradient><linearGradient xlink:href="#a" id="f" x1="3" x2="20.49" y1="3" y2="20.49"/><filter id="b" width="1.003" height="1.014" x="-.002" y="-.007" color-interpolation-filters="sRGB"><feGaussianBlur result="blur" stdDeviation=".05"/><feComposite in="SourceGraphic" in2="blur" operator="in" result="composite1"/><feComposite in="composite1" in2="composite1" operator="in" result="composite2"/></filter><linearGradient id="h" x1="3" x2="21" y1="3" y2="21" gradientUnits="userSpaceOnUse"><stop offset="0" stop-color="#494e8f"/><stop offset="1" stop-color="#6572cc"/></linearGradient><linearGradient xlink:href="#a" id="k" x1="1.565" x2="19.565" y1="2.043" y2="20.043"/><linearGradient xlink:href="#a" id="q" x1="2.007" x2="22" y1="4.023" y2="20"/><linearGradient xlink:href="#a" id="s" x1="29.295" x2="99.151" y1="67.993" y2="138.148"/><linearGradient xlink:href="#a" id="t" x1="9.445" x2="11.759" y1="10.832" y2="13.162"/><filter id="e" width="1.054" height="1.054" x="-.027" y="-.027" color-interpolation-filters="sRGB"><feGaussianBlur result="blur" stdDeviation=".01"/><feComposite in="SourceGraphic" in2="blur" operator="in" result="composite1"/><feComposite in="composite1" in2="composite1" operator="in" result="fbSourceGraphic"/><feColorMatrix in="fbSourceGraphic" result="fbSourceGraphicAlpha" values="0 0 0 -1 0 0 0 0 -1 0 0 0 0 -1 0 0 0 0 1 0"/><feColorMatrix in="fbSourceGraphic" values="1 0 0 0 0 0 1 0 0 0 0 0 1 0 0 0 0 0 1 1"/><feColorMatrix result="colormatrix2" type="hueRotate" values="0"/><feColorMatrix in="colormatrix2" result="colormatrix3" values="-1 0 0 0 1 0 -1 0 0 1 0 0 -1 0 1 0 0 0 1 0"/><feBlend in="colormatrix3" in2="colormatrix2" mode="darken" result="blend1"/><feBlend in2="blend1" mode="screen" result="blend2"/><feComposite in2="fbSourceGraphic" operator="in" result="fbSourceGraphic"/><feColorMatrix in="fbSourceGraphic" result="fbSourceGraphicAlpha" values="0 0 0 -1 0 0 0 0 -1 0 0 0 0 -1 0 0 0 0 1 0"/><feColorMatrix in="fbSourceGraphic" values="1 0 0 0 0 0 1 0 0 0 0 0 1 0 0 0 0 0 1 1"/><feColorMatrix result="colormatrix2" type="hueRotate" values="0"/><feColorMatrix in="colormatrix2" result="colormatrix3" values="-1 0 0 0 1 0 -1 0 0 1 0 0 -1 0 1 0 0 0 1 0"/><feBlend in="colormatrix3" in2="colormatrix2" mode="darken" result="blend1"/><feBlend in2="blend1" mode="screen" result="blend2"/><feComposite in2="fbSourceGraphic" operator="in"/></filter><filter id="v" color-interpolation-filters="sRGB"><feColorMatrix values="1 0 0 0 0 0 1 0 0 0 0 0 1 0 0 0 0 0 1 1"/><feColorMatrix result="colormatrix2" type="hueRotate" values="0"/><feColorMatrix in="colormatrix2" result="colormatrix3" values="-1 0 0 0 1 0 -1 0 0 1 0 0 -1 0 1 0 0 0 1 0"/><feBlend in="colormatrix3" in2="colormatrix2" mode="darken" result="blend1"/><feBlend in2="blend1" mode="screen" result="blend2"/><feComposite in2="SourceGraphic" operator="in"/></filter><filter id="u" width="1" height="1" x="0" y="0" color-interpolation-filters="sRGB"><feColorMatrix values="1 0 0 0 0 0 1 0 0 0 0 0 1 0 0 0 0 0 1 1"/><feColorMatrix result="colormatrix2" type="hueRotate" values="0"/><feColorMatrix in="colormatrix2" result="colormatrix3" values="-1 0 0 0 1 0 -1 0 0 1 0 0 -1 0 1 0 0 0 1 0"/><feBlend in="colormatrix3" in2="colormatrix2" mode="darken" result="blend1"/><feBlend in2="blend1" mode="screen" result="blend2"/><feComposite in2="SourceGraphic" operator="in"/></filter><filter id="r" width="1" height="1" x="0" y="0" color-interpolation-filters="sRGB"><feColorMatrix values="1 0 0 0 0 0 1 0 0 0 0 0 1 0 0 0 0 0 1 1"/><feColorMatrix result="colormatrix2" type="hueRotate" values="0"/><feColorMatrix in="colormatrix2" result="colormatrix3" values="-1 0 0 0 1 0 -1 0 0 1 0 0 -1 0 1 0 0 0 1 0"/><feBlend in="colormatrix3" in2="colormatrix2" mode="darken" result="blend1"/><feBlend in2="blend1" mode="screen" result="blend2"/><feComposite in2="SourceGraphic" operator="in"/></filter><filter id="l" width="1" height="1" x="0" y="0" color-interpolation-filters="sRGB"><feColorMatrix values="1 0 0 0 0 0 1 0 0 0 0 0 1 0 0 0 0 0 1 1"/><feColorMatrix result="colormatrix2" type="hueRotate" values="0"/><feColorMatrix in="colormatrix2" result="colormatrix3" values="-1 0 0 0 1 0 -1 0 0 1 0 0 -1 0 1 0 0 0 1 0"/><feBlend in="colormatrix3" in2="colormatrix2" mode="darken" result="blend1"/><feBlend in2="blend1" mode="screen" result="blend2"/><feComposite in2="SourceGraphic" operator="in"/></filter><filter id="j" width="1" height="1" x="0" y="0" color-interpolation-filters="sRGB"><feColorMatrix values="1 0 0 0 0 0 1 0 0 0 0 0 1 0 0 0 0 0 1 1"/><feColorMatrix result="colormatrix2" type="hueRotate" values="0"/><feColorMatrix in="colormatrix2" result="colormatrix3" values="-1 0 0 0 1 0 -1 0 0 1 0 0 -1 0 1 0 0 0 1 0"/><feBlend in="colormatrix3" in2="colormatrix2" mode="darken" result="blend1"/><feBlend in2="blend1" mode="screen" result="blend2"/><feComposite in2="SourceGraphic" operator="in"/></filter><filter id="g" width="1" height="1" x="0" y="0" color-interpolation-filters="sRGB"><feColorMatrix values="1 0 0 0 0 0 1 0 0 0 0 0 1 0 0 0 0 0 1 1"/><feColorMatrix result="colormatrix2" type="hueRotate" values="0"/><feColorMatrix in="colormatrix2" result="colormatrix3" values="-1 0 0 0 1 0 -1 0 0 1 0 0 -1 0 1 0 0 0 1 0"/><feBlend in="colormatrix3" in2="colormatrix2" mode="darken" result="blend1"/><feBlend in2="blend1" mode="screen" result="blend2"/><feComposite in2="SourceGraphic" operator="in"/></filter><linearGradient id="d" x1="4.75" x2="14.243" y1="9.503" y2="9.503" gradientUnits="userSpaceOnUse"><stop offset="0" stop-color="#2d394a"/><stop offset="1" stop-color="#35475e"/></linearGradient><g filter="url(#b)" transform="translate(-85.7 -84.309)scale(29.27387)"><circle cx="9.497" cy="9.503" r="4.503" fill="url(#d)" filter="url(#e)" transform="matrix(1.0572 0 0 1.03575 -.453 -.317)"/><path fill="url(#f)" d="M15.5 14h-.79l-.28-.27A6.47 6.47 0 0 0 16 9.5 6.5 6.5 0 1 0 9.5 16c1.61 0 3.09-.59 4.23-1.57l.27.28v.79l5 4.99c.528-.963.528-.963 1.49-1.49zm-6 0C7.01 14 5 11.99 5 9.5S7.01 5 9.5 5 14 7.01 14 9.5 11.99 14 9.5 14" filter="url(#g)"/><g fill="url(#h)" filter="url(#j)" transform="matrix(.13257 0 0 .13257 6.992 5.517)"><path fill="url(#k)" d="M19.565 18.043v-14c0-1.1-.9-2-2-2h-14c-1.1 0-2 .9-2 2v14c0 1.1.9 2 2 2h14c1.1 0 2-.9 2-2m-12.5-5.5 2.5 3.01 3.5-4.51 4.5 6h-14z"/></g><g filter="url(#l)" transform="matrix(.1156 0 0 .14914 10.611 7.098)"><path fill="url(#q)" d="m18 4 2 4h-3l-2-4h-2l2 4h-3l-2-4H8l2 4H7L5 4H4c-1.1 0-1.99.9-1.99 2L2 18c0 1.1.9 2 2 2h16c1.1 0 2-.9 2-2V4z"/></g><g filter="url(#r)" transform="translate(5.01 6.453)scale(.03416)"><path fill="url(#s)" d="M91.39 67.993H37.057c-4.27 0-7.762 3.507-7.762 7.795v54.565c0 4.287 3.493 7.795 7.762 7.795H91.39c4.269 0 7.761-3.508 7.761-7.795V75.788c0-4.288-3.492-7.795-7.761-7.795m-19.405 54.565H44.82v-7.795h27.166zm11.643-15.59h-38.81v-7.795h38.81zm0-15.59h-38.81v-7.795h38.81z"/></g><path fill="url(#t)" d="M11.56 10.745H9.665a.314.314 0 0 0-.316.31v1.865c0 .171.143.311.316.311h1.897c.174 0 .316-.14.316-.31v-1.866c0-.17-.142-.31-.316-.31m-.316.777h-.474v.854a.39.39 0 0 1-.395.389c-.218 0-.395-.174-.395-.389s.177-.388.395-.388c.09 0 .17.03.237.079v-.856h.632z" filter="url(#u)"/><g filter="url(#v)" transform="matrix(.0503 -.03312 .04943 .038 7.71 11.148)"/><g stroke="#05070a" stroke-linecap="round" stroke-linejoin="bevel" stroke-width=".171" filter="url(#e)"><g fill="#6c5353"><path d="m7.272 8.09-1.052.691M8.342 8.881l.978-.707M8.321 11.09l1.105-.238M12.923 10.081l-1.153.742M9.513 8.09l1.37-.265M6.148 11.139l3.245 1.94M9.5 5.858l3.547 1.837M9.664 10.745l1.267-.728M6.058 8.889l-.87-.681M7.258 5.886l-.176-.185M9.5 5.858l.399-.84M11.761 13.16l.166.132M9.508 13.19l-.784.744M6.047 11.041l-.672.264M9.455 8.137l.094 2.63M13.154 7.695l.377-.201"/></g><path fill="#161a1f" d="m13.067 10.017.82.496"/></g><path fill="#fff" d="M28.061 9.28q0 .644-.101 1.219t-.27 1.033-.397.799-.473.516q.53.37.783 1.793l.306 1.657q.173.974.508 1.442-.152.39-.457.653t-.672.263-.57-.4q-.203-.399-.376-1.393l-.366-2.046q-.112-.585-.3-.897-.189-.312-.565-.312h-.417v4.873q-.326.117-.814.117t-.804-.117V5.266l.072-.136q.885-.04 1.49-.059.605-.02.951-.02.56 0 1.017.264.458.263.779.79.32.525.498 1.324.178.8.178 1.852zm-3.367-1.89v3.82q.458 0 .783-.03.326-.029.524-.233.199-.205.3-.575.102-.37.102-1.072 0-1.89-.956-1.89h-.422zm8.27 7.211H30.31q.02.877.234 1.365.213.487.701.487.245 0 .565-.137.32-.136.738-.448.335.663.417 1.793-.814 1.111-1.994 1.111-.641 0-1.073-.39-.433-.39-.702-1.091-.27-.702-.382-1.657t-.112-2.085q0-1.091.138-2.017.137-.926.417-1.608t.712-1.072 1.012-.39q.488 0 .88.312t.666.858.423 1.305.147 1.657q0 1.189-.132 2.007M30.3 12.497h1.343v-.215q0-.72-.168-1.189-.168-.467-.503-.467-.326 0-.483.438-.158.439-.189 1.433m7.66 2.104.255 1.423q.204 1.286.488 1.657-.447.955-1.068.955-.335 0-.508-.302t-.306-1.063l-.305-1.676q-.102-.604-.234-.808t-.356-.205-.315.02v3.878q-.336.117-.773.117-.438 0-.774-.117V4.272l.072-.136h.61q.478 0 .671.41.194.408.194 1.422v6.12h.162q.184 0 .285-.351l.53-1.95q.284-1.11.895-1.11.295 0 .885.04l.06.155-.783 2.904q-.203.74-.518 1.15.61.429.834 1.676zm4.925-4.989q.732 1.403.732 4.015 0 1.17-.158 2.124-.157.955-.457 1.628t-.738 1.033-1.007.36-1.002-.37-.733-1.043-.452-1.627q-.153-.955-.153-2.105 0-1.17.153-2.115.152-.945.447-1.627t.733-1.052 1.007-.37q1.007 0 1.628 1.15m-1.618 1.13q-.224 0-.361.205t-.219.556-.112.808-.03.985q0 .818.026 1.413.025.594.101.994.077.399.214.594t.361.195q.448 0 .59-.75.143-.75.143-2.135 0-1.403-.143-2.134-.142-.73-.57-.73zm2.808 6.588q.03-.643.209-1.286.178-.644.422-1.053 1.088 1.267 2.065 1.267.427 0 .626-.37.198-.37.198-.916 0-.916-.641-1.442l-1.2-.975q-.702-.604-1.079-1.452-.376-.848-.376-2.153 0-.897.188-1.638t.529-1.286.809-.848 1.037-.302q1.14 0 2.3 1.111-.051 1.5-.55 2.339-1.037-.955-1.83-.955-.408 0-.611.35-.204.352-.204.8 0 .76.6 1.228l1.221.994q.773.623 1.155 1.598.381.974.381 2.26 0 .916-.173 1.677-.173.76-.513 1.315-.341.555-.85.867t-1.19.312q-1.323 0-2.523-1.442M54.156 14.6H51.5q.02.877.234 1.365.214.487.702.487.245 0 .565-.137.32-.136.738-.448.335.663.417 1.793-.814 1.111-1.994 1.111-.641 0-1.074-.39-.432-.39-.702-1.091-.27-.702-.381-1.657-.112-.955-.112-2.085 0-1.091.137-2.017.138-.926.418-1.608t.712-1.072q.432-.39 1.012-.39.488 0 .88.312t.666.858.422 1.305.148 1.657q0 1.189-.132 2.007m-2.666-2.104h1.343v-.215q0-.72-.168-1.189-.168-.467-.503-.467-.326 0-.484.438-.157.439-.188 1.433m8.078 4.58q-.051.409-.193.877-.143.467-.295.682-.713-.04-1.1-1.033-.66 1.17-1.434 1.17-.396 0-.691-.245-.295-.243-.499-.652-.203-.41-.305-.946t-.102-1.12q0-.838.158-1.472.158-.633.432-1.052.275-.42.641-.633.366-.215.783-.215.234 0 .412.01.179.01.31.03v-.37q0-1.229-.66-1.229-.428 0-1.496.624-.305-.682-.387-2.124.245-.176.545-.332t.615-.273q.316-.116.62-.185.306-.068.55-.068.356 0 .687.195.33.195.58.595t.397 1.033.147 1.51v3.956q0 .897.285 1.267zm-3.072-1.462q0 .916.549.916.285 0 .64-.565v-1.56q-.203-.02-.34-.029t-.209-.01q-.64 0-.64 1.248zm3.672-5.457q.05-.39.193-.867.143-.478.285-.692.936.136 1.302 1.773.387-1.754 1.272-1.754.265 0 .671.156 0 .604-.106 1.433-.107.828-.29 1.413-.173-.117-.52-.195-.508 0-.833.994v6.06q-.336.118-.789.118-.452 0-.798-.117v-6.295q0-1.462-.387-2.027m6.725 2.904v-.254q0-1.091-.122-1.588-.123-.497-.458-.497-.356 0-.499.672-.142.673-.142 2.232 0 .78.056 1.306t.163.847.27.468.386.146q.234 0 .519-.194.284-.195.61-.624.091.097.188.282.097.186.178.42.082.233.143.496.06.264.091.498-.336.682-.875 1.09-.539.41-1.098.41-1.089 0-1.669-1.364t-.58-3.878q0-1.287.188-2.242.189-.955.499-1.578t.712-.936.84-.312q.447 0 .818.234.372.234.641.663.27.429.417 1.023.148.594.148 1.316 0 .818-.25 1.15-.249.33-.615.33-.305 0-.56-.116zm6.633-1.014v3.996q0 1.305.254 1.929-.387.663-.936.663-.53 0-.722-.468-.194-.468-.194-1.423v-4.151q0-.663-.091-.974-.092-.312-.356-.312-.153 0-.346.156t-.397.506v6.51q-.336.117-.773.117-.438 0-.773-.117V4.272l.07-.136h.611q.489 0 .677.409.188.41.188 1.423V9.65q.682-1.072 1.363-1.072.682 0 1.053.945.372.946.372 2.524"/></g></svg>