<svg xmlns="http://www.w3.org/2000/svg" xmlns:xlink="http://www.w3.org/1999/xlink" width="3514.212" height="519.026"><linearGradient id="a" gradientUnits="userSpaceOnUse"><stop offset="0" stop-color="#191d23"/><stop offset="1" stop-color="#05070a"/></linearGradient><linearGradient xlink:href="#a" id="f" x1="3" x2="20.49" y1="3" y2="20.49"/><filter id="b" width="1.002" height="1.014" x="-.001" y="-.007" color-interpolation-filters="sRGB"><feGaussianBlur result="blur" stdDeviation=".05"/><feComposite in="SourceGraphic" in2="blur" operator="in" result="composite1"/><feComposite in="composite1" in2="composite1" operator="in" result="composite2"/></filter><linearGradient id="h" x1="3" x2="21" y1="3" y2="21" gradientUnits="userSpaceOnUse"><stop offset="0" stop-color="#494e8f"/><stop offset="1" stop-color="#6572cc"/></linearGradient><linearGradient xlink:href="#a" id="k" x1="1.565" x2="19.565" y1="2.043" y2="20.043"/><linearGradient xlink:href="#a" id="q" x1="2.007" x2="22" y1="4.023" y2="20"/><linearGradient xlink:href="#a" id="s" x1="29.295" x2="99.151" y1="67.993" y2="138.148"/><linearGradient xlink:href="#a" id="t" x1="9.445" x2="11.759" y1="10.832" y2="13.162"/><filter id="e" width="1.054" height="1.054" x="-.027" y="-.027" color-interpolation-filters="sRGB"><feGaussianBlur result="blur" stdDeviation=".01"/><feComposite in="SourceGraphic" in2="blur" operator="in" result="composite1"/><feComposite in="composite1" in2="composite1" operator="in" result="fbSourceGraphic"/><feColorMatrix in="fbSourceGraphic" result="fbSourceGraphicAlpha" values="0 0 0 -1 0 0 0 0 -1 0 0 0 0 -1 0 0 0 0 1 0"/><feColorMatrix in="fbSourceGraphic" values="1 0 0 0 0 0 1 0 0 0 0 0 1 0 0 0 0 0 1 1"/><feColorMatrix result="colormatrix2" type="hueRotate" values="0"/><feColorMatrix in="colormatrix2" result="colormatrix3" values="-1 0 0 0 1 0 -1 0 0 1 0 0 -1 0 1 0 0 0 1 0"/><feBlend in="colormatrix3" in2="colormatrix2" mode="darken" result="blend1"/><feBlend in2="blend1" mode="screen" result="blend2"/><feComposite in2="fbSourceGraphic" operator="in" result="fbSourceGraphic"/><feColorMatrix in="fbSourceGraphic" result="fbSourceGraphicAlpha" values="0 0 0 -1 0 0 0 0 -1 0 0 0 0 -1 0 0 0 0 1 0"/><feColorMatrix in="fbSourceGraphic" values="1 0 0 0 0 0 1 0 0 0 0 0 1 0 0 0 0 0 1 1"/><feColorMatrix result="colormatrix2" type="hueRotate" values="0"/><feColorMatrix in="colormatrix2" result="colormatrix3" values="-1 0 0 0 1 0 -1 0 0 1 0 0 -1 0 1 0 0 0 1 0"/><feBlend in="colormatrix3" in2="colormatrix2" mode="darken" result="blend1"/><feBlend in2="blend1" mode="screen" result="blend2"/><feComposite in2="fbSourceGraphic" operator="in"/></filter><filter id="v" color-interpolation-filters="sRGB"><feColorMatrix values="1 0 0 0 0 0 1 0 0 0 0 0 1 0 0 0 0 0 1 1"/><feColorMatrix result="colormatrix2" type="hueRotate" values="0"/><feColorMatrix in="colormatrix2" result="colormatrix3" values="-1 0 0 0 1 0 -1 0 0 1 0 0 -1 0 1 0 0 0 1 0"/><feBlend in="colormatrix3" in2="colormatrix2" mode="darken" result="blend1"/><feBlend in2="blend1" mode="screen" result="blend2"/><feComposite in2="SourceGraphic" operator="in"/></filter><filter id="u" width="1" height="1" x="0" y="0" color-interpolation-filters="sRGB"><feColorMatrix values="1 0 0 0 0 0 1 0 0 0 0 0 1 0 0 0 0 0 1 1"/><feColorMatrix result="colormatrix2" type="hueRotate" values="0"/><feColorMatrix in="colormatrix2" result="colormatrix3" values="-1 0 0 0 1 0 -1 0 0 1 0 0 -1 0 1 0 0 0 1 0"/><feBlend in="colormatrix3" in2="colormatrix2" mode="darken" result="blend1"/><feBlend in2="blend1" mode="screen" result="blend2"/><feComposite in2="SourceGraphic" operator="in"/></filter><filter id="r" width="1" height="1" x="0" y="0" color-interpolation-filters="sRGB"><feColorMatrix values="1 0 0 0 0 0 1 0 0 0 0 0 1 0 0 0 0 0 1 1"/><feColorMatrix result="colormatrix2" type="hueRotate" values="0"/><feColorMatrix in="colormatrix2" result="colormatrix3" values="-1 0 0 0 1 0 -1 0 0 1 0 0 -1 0 1 0 0 0 1 0"/><feBlend in="colormatrix3" in2="colormatrix2" mode="darken" result="blend1"/><feBlend in2="blend1" mode="screen" result="blend2"/><feComposite in2="SourceGraphic" operator="in"/></filter><filter id="l" width="1" height="1" x="0" y="0" color-interpolation-filters="sRGB"><feColorMatrix values="1 0 0 0 0 0 1 0 0 0 0 0 1 0 0 0 0 0 1 1"/><feColorMatrix result="colormatrix2" type="hueRotate" values="0"/><feColorMatrix in="colormatrix2" result="colormatrix3" values="-1 0 0 0 1 0 -1 0 0 1 0 0 -1 0 1 0 0 0 1 0"/><feBlend in="colormatrix3" in2="colormatrix2" mode="darken" result="blend1"/><feBlend in2="blend1" mode="screen" result="blend2"/><feComposite in2="SourceGraphic" operator="in"/></filter><filter id="j" width="1" height="1" x="0" y="0" color-interpolation-filters="sRGB"><feColorMatrix values="1 0 0 0 0 0 1 0 0 0 0 0 1 0 0 0 0 0 1 1"/><feColorMatrix result="colormatrix2" type="hueRotate" values="0"/><feColorMatrix in="colormatrix2" result="colormatrix3" values="-1 0 0 0 1 0 -1 0 0 1 0 0 -1 0 1 0 0 0 1 0"/><feBlend in="colormatrix3" in2="colormatrix2" mode="darken" result="blend1"/><feBlend in2="blend1" mode="screen" result="blend2"/><feComposite in2="SourceGraphic" operator="in"/></filter><filter id="g" width="1" height="1" x="0" y="0" color-interpolation-filters="sRGB"><feColorMatrix values="1 0 0 0 0 0 1 0 0 0 0 0 1 0 0 0 0 0 1 1"/><feColorMatrix result="colormatrix2" type="hueRotate" values="0"/><feColorMatrix in="colormatrix2" result="colormatrix3" values="-1 0 0 0 1 0 -1 0 0 1 0 0 -1 0 1 0 0 0 1 0"/><feBlend in="colormatrix3" in2="colormatrix2" mode="darken" result="blend1"/><feBlend in2="blend1" mode="screen" result="blend2"/><feComposite in2="SourceGraphic" operator="in"/></filter><linearGradient id="d" x1="4.75" x2="14.243" y1="9.503" y2="9.503" gradientUnits="userSpaceOnUse"><stop offset="0" stop-color="#2d394a"/><stop offset="1" stop-color="#35475e"/></linearGradient><g filter="url(#b)" transform="translate(-84.231 -84.309)scale(29.27387)"><circle cx="9.497" cy="9.503" r="4.503" fill="url(#d)" filter="url(#e)" transform="matrix(1.0572 0 0 1.03575 -.453 -.317)"/><path fill="url(#f)" d="M15.5 14h-.79l-.28-.27A6.47 6.47 0 0 0 16 9.5 6.5 6.5 0 1 0 9.5 16c1.61 0 3.09-.59 4.23-1.57l.27.28v.79l5 4.99c.528-.963.528-.963 1.49-1.49zm-6 0C7.01 14 5 11.99 5 9.5S7.01 5 9.5 5 14 7.01 14 9.5 11.99 14 9.5 14" filter="url(#g)"/><g fill="url(#h)" filter="url(#j)" transform="matrix(.13257 0 0 .13257 6.992 5.517)"><path fill="url(#k)" d="M19.565 18.043v-14c0-1.1-.9-2-2-2h-14c-1.1 0-2 .9-2 2v14c0 1.1.9 2 2 2h14c1.1 0 2-.9 2-2m-12.5-5.5 2.5 3.01 3.5-4.51 4.5 6h-14z"/></g><g filter="url(#l)" transform="matrix(.1156 0 0 .14914 10.611 7.098)"><path fill="url(#q)" d="m18 4 2 4h-3l-2-4h-2l2 4h-3l-2-4H8l2 4H7L5 4H4c-1.1 0-1.99.9-1.99 2L2 18c0 1.1.9 2 2 2h16c1.1 0 2-.9 2-2V4z"/></g><g filter="url(#r)" transform="translate(5.01 6.453)scale(.03416)"><path fill="url(#s)" d="M91.39 67.993H37.057c-4.27 0-7.762 3.507-7.762 7.795v54.565c0 4.287 3.493 7.795 7.762 7.795H91.39c4.269 0 7.761-3.508 7.761-7.795V75.788c0-4.288-3.492-7.795-7.761-7.795m-19.405 54.565H44.82v-7.795h27.166zm11.643-15.59h-38.81v-7.795h38.81zm0-15.59h-38.81v-7.795h38.81z"/></g><path fill="url(#t)" d="M11.56 10.745H9.665a.314.314 0 0 0-.316.31v1.865c0 .171.143.311.316.311h1.897c.174 0 .316-.14.316-.31v-1.866c0-.17-.142-.31-.316-.31m-.316.777h-.474v.854a.39.39 0 0 1-.395.389c-.218 0-.395-.174-.395-.389s.177-.388.395-.388c.09 0 .17.03.237.079v-.856h.632z" filter="url(#u)"/><g filter="url(#v)" transform="matrix(.0503 -.03312 .04943 .038 7.71 11.148)"/><g stroke="#05070a" stroke-linecap="round" stroke-linejoin="bevel" stroke-width=".171" filter="url(#e)"><g fill="#6c5353"><path d="m7.272 8.09-1.052.691M8.342 8.881l.978-.707M8.321 11.09l1.105-.238M12.923 10.081l-1.153.742M9.513 8.09l1.37-.265M6.148 11.139l3.245 1.94M9.5 5.858l3.547 1.837M9.664 10.745l1.267-.728M6.058 8.889l-.87-.681M7.258 5.886l-.176-.185M9.5 5.858l.399-.84M11.761 13.16l.166.132M9.508 13.19l-.784.744M6.047 11.041l-.672.264M9.455 8.137l.094 2.63M13.154 7.695l.377-.201"/></g><path fill="#161a1f" d="m13.067 10.017.82.496"/></g><path fill="#fff" d="M35.216 9.552q0 .644-.195 1.219-.195.574-.516 1.032-.322.458-.76.8-.439.34-.907.516 1.014.37 1.501 1.793l.585 1.657q.331.974.974 1.442-.292.39-.877.653-.584.263-1.286.263t-1.091-.4-.721-1.393l-.702-2.047q-.214-.584-.575-.896-.36-.312-1.082-.312h-.799v4.872q-.623.117-1.559.117t-1.54-.117V5.538l.137-.137q1.695-.04 2.855-.058 1.16-.02 1.822-.02 1.072 0 1.95.264.876.263 1.49.789t.955 1.325q.341.8.341 1.852zm-6.45-1.89v3.82q.876 0 1.5-.03t1.004-.233.575-.575q.194-.37.194-1.072 0-1.89-1.832-1.89H29.4zm15.844 7.211h-5.087q.04.877.449 1.364t1.344.487q.468 0 1.082-.136t1.413-.448q.643.662.799 1.793-1.56 1.11-3.82 1.11-1.228 0-2.056-.39-.828-.389-1.345-1.09-.516-.702-.73-1.657-.215-.955-.215-2.085 0-1.092.263-2.018t.8-1.607 1.363-1.072 1.94-.39q.935 0 1.685.312t1.277.857.809 1.306q.282.76.282 1.657 0 1.188-.253 2.007m-5.106-2.105h2.572v-.214q0-.721-.321-1.189-.322-.468-.965-.468-.624 0-.926.439-.302.438-.36 1.432m14.675 2.105.487 1.423q.39 1.286.936 1.656-.858.955-2.046.955-.644 0-.975-.302t-.585-1.062l-.584-1.676q-.195-.604-.449-.809-.253-.204-.682-.204t-.604.02v3.878q-.643.116-1.481.116t-1.481-.116V4.544l.136-.137h1.17q.915 0 1.286.41.37.41.37 1.422v6.12h.312q.35 0 .546-.35l1.013-1.95q.546-1.11 1.715-1.11.565 0 1.696.039l.117.156-1.501 2.904q-.39.74-.994 1.15 1.17.428 1.598 1.675zm9.433-4.99q1.403 1.404 1.403 4.016 0 1.169-.302 2.124t-.877 1.627-1.413 1.033-1.93.36q-1.09 0-1.919-.37-.828-.37-1.403-1.042-.575-.673-.867-1.628T56.01 13.9q0-1.17.293-2.115.292-.945.857-1.627.565-.683 1.403-1.053t1.93-.37q1.93 0 3.118 1.15m-3.099 1.131q-.429 0-.692.205-.263.204-.419.555t-.214.809-.058.984q0 .819.049 1.413t.195.994.409.595.692.194q.857 0 1.13-.75t.273-2.134q0-1.403-.273-2.134t-1.091-.73zm5.38 6.588q.057-.644.399-1.287.34-.643.809-1.052 2.085 1.267 3.956 1.267.818 0 1.198-.37.38-.371.38-.917 0-.916-1.227-1.442l-2.3-.974q-1.345-.605-2.066-1.452-.721-.848-.721-2.154 0-.896.36-1.637.361-.74 1.014-1.286t1.55-.848 1.987-.302q2.183 0 4.405 1.11-.098 1.501-1.053 2.34-1.987-.955-3.508-.955-.78 0-1.169.35-.39.351-.39.8 0 .76 1.15 1.227l2.339.994q1.481.624 2.212 1.598.73.975.73 2.261 0 .916-.33 1.676-.332.76-.985 1.316-.653.555-1.627.867-.975.312-2.28.312-2.534 0-4.834-1.442m19.313-2.729h-5.087q.04.877.449 1.364t1.344.487q.468 0 1.082-.136t1.413-.448q.643.662.799 1.793-1.56 1.11-3.82 1.11-1.228 0-2.056-.39-.828-.389-1.345-1.09-.516-.702-.73-1.657-.215-.955-.215-2.085 0-1.092.263-2.018t.8-1.607 1.364-1.072 1.939-.39q.935 0 1.686.312t1.276.857.809 1.306q.282.76.282 1.657 0 1.188-.253 2.007M80.1 12.768h2.572v-.214q0-.721-.321-1.189-.322-.468-.965-.468-.624 0-.926.439-.302.438-.36 1.432m15.474 4.58q-.097.41-.37.877-.273.468-.565.682-1.364-.039-2.105-1.033-1.267 1.17-2.748 1.17-.76 0-1.325-.244t-.955-.653-.585-.945-.195-1.12q0-.839.302-1.472t.829-1.052 1.227-.634 1.501-.214q.448 0 .79.01.34.01.594.029v-.37q0-1.228-1.267-1.228-.819 0-2.865.624-.585-.683-.74-2.125.467-.175 1.042-.331t1.18-.273 1.188-.185 1.053-.068q.682 0 1.315.195t1.111.594.76 1.033.283 1.51v3.957q0 .896.545 1.267zm-5.885-1.462q0 .916 1.052.916.546 0 1.228-.565v-1.559q-.39-.02-.653-.03t-.4-.01q-1.227 0-1.227 1.248zm7.035-5.457q.098-.39.37-.867.273-.477.546-.692 1.793.137 2.495 1.774.74-1.754 2.436-1.754.507 0 1.286.156 0 .604-.204 1.432-.205.828-.556 1.413-.331-.117-.994-.195-.974 0-1.598.994v6.061q-.643.117-1.51.117-.868 0-1.53-.117v-6.295q0-1.461-.74-2.027m12.883 2.904v-.253q0-1.091-.234-1.588t-.877-.497q-.683 0-.955.672-.273.672-.273 2.232 0 .78.107 1.305.107.527.312.848.204.322.516.468t.74.146q.45 0 .995-.195.546-.195 1.17-.624.175.098.36.283t.34.42q.157.233.274.496t.175.497q-.643.682-1.676 1.092-1.033.409-2.105.409-2.085 0-3.196-1.364-1.11-1.365-1.11-3.879 0-1.286.36-2.241t.955-1.579 1.364-.935 1.608-.312q.857 0 1.569.234.71.234 1.227.662.517.43.8 1.024.282.594.282 1.315 0 .819-.477 1.15-.478.331-1.18.331-.584 0-1.071-.117zm12.707-1.013v3.995q0 1.306.487 1.93-.74.662-1.793.662-1.014 0-1.384-.467-.37-.468-.37-1.423v-4.151q0-.663-.176-.975-.175-.312-.682-.312-.292 0-.662.156t-.76.507v6.51q-.644.116-1.482.116t-1.48-.117V4.544l.135-.137h1.17q.935 0 1.296.41.36.409.36 1.422v3.684q1.306-1.072 2.612-1.072t2.017.945.711 2.524"/></g></svg>