<svg xmlns="http://www.w3.org/2000/svg" xmlns:xlink="http://www.w3.org/1999/xlink" width="3478.291" height="519.026"><linearGradient id="a" gradientUnits="userSpaceOnUse"><stop offset="0" stop-color="#191d23"/><stop offset="1" stop-color="#05070a"/></linearGradient><linearGradient xlink:href="#a" id="f" x1="3" x2="20.49" y1="3" y2="20.49"/><filter id="b" width="1.002" height="1.014" x="-.001" y="-.007" color-interpolation-filters="sRGB"><feGaussianBlur result="blur" stdDeviation=".05"/><feComposite in="SourceGraphic" in2="blur" operator="in" result="composite1"/><feComposite in="composite1" in2="composite1" operator="in" result="composite2"/></filter><linearGradient id="h" x1="3" x2="21" y1="3" y2="21" gradientUnits="userSpaceOnUse"><stop offset="0" stop-color="#494e8f"/><stop offset="1" stop-color="#6572cc"/></linearGradient><linearGradient xlink:href="#a" id="k" x1="1.565" x2="19.565" y1="2.043" y2="20.043"/><linearGradient xlink:href="#a" id="q" x1="2.007" x2="22" y1="4.023" y2="20"/><linearGradient xlink:href="#a" id="s" x1="29.295" x2="99.151" y1="67.993" y2="138.148"/><linearGradient xlink:href="#a" id="t" x1="9.445" x2="11.759" y1="10.832" y2="13.162"/><filter id="e" width="1.054" height="1.054" x="-.027" y="-.027" color-interpolation-filters="sRGB"><feGaussianBlur result="blur" stdDeviation=".01"/><feComposite in="SourceGraphic" in2="blur" operator="in" result="composite1"/><feComposite in="composite1" in2="composite1" operator="in" result="fbSourceGraphic"/><feColorMatrix in="fbSourceGraphic" result="fbSourceGraphicAlpha" values="0 0 0 -1 0 0 0 0 -1 0 0 0 0 -1 0 0 0 0 1 0"/><feColorMatrix in="fbSourceGraphic" values="1 0 0 0 0 0 1 0 0 0 0 0 1 0 0 0 0 0 1 1"/><feColorMatrix result="colormatrix2" type="hueRotate" values="0"/><feColorMatrix in="colormatrix2" result="colormatrix3" values="-1 0 0 0 1 0 -1 0 0 1 0 0 -1 0 1 0 0 0 1 0"/><feBlend in="colormatrix3" in2="colormatrix2" mode="darken" result="blend1"/><feBlend in2="blend1" mode="screen" result="blend2"/><feComposite in2="fbSourceGraphic" operator="in" result="fbSourceGraphic"/><feColorMatrix in="fbSourceGraphic" result="fbSourceGraphicAlpha" values="0 0 0 -1 0 0 0 0 -1 0 0 0 0 -1 0 0 0 0 1 0"/><feColorMatrix in="fbSourceGraphic" values="1 0 0 0 0 0 1 0 0 0 0 0 1 0 0 0 0 0 1 1"/><feColorMatrix result="colormatrix2" type="hueRotate" values="0"/><feColorMatrix in="colormatrix2" result="colormatrix3" values="-1 0 0 0 1 0 -1 0 0 1 0 0 -1 0 1 0 0 0 1 0"/><feBlend in="colormatrix3" in2="colormatrix2" mode="darken" result="blend1"/><feBlend in2="blend1" mode="screen" result="blend2"/><feComposite in2="fbSourceGraphic" operator="in"/></filter><filter id="v" color-interpolation-filters="sRGB"><feColorMatrix values="1 0 0 0 0 0 1 0 0 0 0 0 1 0 0 0 0 0 1 1"/><feColorMatrix result="colormatrix2" type="hueRotate" values="0"/><feColorMatrix in="colormatrix2" result="colormatrix3" values="-1 0 0 0 1 0 -1 0 0 1 0 0 -1 0 1 0 0 0 1 0"/><feBlend in="colormatrix3" in2="colormatrix2" mode="darken" result="blend1"/><feBlend in2="blend1" mode="screen" result="blend2"/><feComposite in2="SourceGraphic" operator="in"/></filter><filter id="u" width="1" height="1" x="0" y="0" color-interpolation-filters="sRGB"><feColorMatrix values="1 0 0 0 0 0 1 0 0 0 0 0 1 0 0 0 0 0 1 1"/><feColorMatrix result="colormatrix2" type="hueRotate" values="0"/><feColorMatrix in="colormatrix2" result="colormatrix3" values="-1 0 0 0 1 0 -1 0 0 1 0 0 -1 0 1 0 0 0 1 0"/><feBlend in="colormatrix3" in2="colormatrix2" mode="darken" result="blend1"/><feBlend in2="blend1" mode="screen" result="blend2"/><feComposite in2="SourceGraphic" operator="in"/></filter><filter id="r" width="1" height="1" x="0" y="0" color-interpolation-filters="sRGB"><feColorMatrix values="1 0 0 0 0 0 1 0 0 0 0 0 1 0 0 0 0 0 1 1"/><feColorMatrix result="colormatrix2" type="hueRotate" values="0"/><feColorMatrix in="colormatrix2" result="colormatrix3" values="-1 0 0 0 1 0 -1 0 0 1 0 0 -1 0 1 0 0 0 1 0"/><feBlend in="colormatrix3" in2="colormatrix2" mode="darken" result="blend1"/><feBlend in2="blend1" mode="screen" result="blend2"/><feComposite in2="SourceGraphic" operator="in"/></filter><filter id="l" width="1" height="1" x="0" y="0" color-interpolation-filters="sRGB"><feColorMatrix values="1 0 0 0 0 0 1 0 0 0 0 0 1 0 0 0 0 0 1 1"/><feColorMatrix result="colormatrix2" type="hueRotate" values="0"/><feColorMatrix in="colormatrix2" result="colormatrix3" values="-1 0 0 0 1 0 -1 0 0 1 0 0 -1 0 1 0 0 0 1 0"/><feBlend in="colormatrix3" in2="colormatrix2" mode="darken" result="blend1"/><feBlend in2="blend1" mode="screen" result="blend2"/><feComposite in2="SourceGraphic" operator="in"/></filter><filter id="j" width="1" height="1" x="0" y="0" color-interpolation-filters="sRGB"><feColorMatrix values="1 0 0 0 0 0 1 0 0 0 0 0 1 0 0 0 0 0 1 1"/><feColorMatrix result="colormatrix2" type="hueRotate" values="0"/><feColorMatrix in="colormatrix2" result="colormatrix3" values="-1 0 0 0 1 0 -1 0 0 1 0 0 -1 0 1 0 0 0 1 0"/><feBlend in="colormatrix3" in2="colormatrix2" mode="darken" result="blend1"/><feBlend in2="blend1" mode="screen" result="blend2"/><feComposite in2="SourceGraphic" operator="in"/></filter><filter id="g" width="1" height="1" x="0" y="0" color-interpolation-filters="sRGB"><feColorMatrix values="1 0 0 0 0 0 1 0 0 0 0 0 1 0 0 0 0 0 1 1"/><feColorMatrix result="colormatrix2" type="hueRotate" values="0"/><feColorMatrix in="colormatrix2" result="colormatrix3" values="-1 0 0 0 1 0 -1 0 0 1 0 0 -1 0 1 0 0 0 1 0"/><feBlend in="colormatrix3" in2="colormatrix2" mode="darken" result="blend1"/><feBlend in2="blend1" mode="screen" result="blend2"/><feComposite in2="SourceGraphic" operator="in"/></filter><linearGradient id="d" x1="4.75" x2="14.243" y1="9.503" y2="9.503" gradientUnits="userSpaceOnUse"><stop offset="0" stop-color="#2d394a"/><stop offset="1" stop-color="#35475e"/></linearGradient><linearGradient id="w" x1="33.8" x2="46.605" y1="14.493" y2="14.516" gradientUnits="userSpaceOnUse"><stop offset="0" stop-color="#2d394a"/><stop offset="1" stop-color="#42926f"/></linearGradient><g filter="url(#b)" transform="translate(-64.28 -84.309)scale(29.27387)"><circle cx="9.497" cy="9.503" r="4.503" fill="url(#d)" filter="url(#e)" transform="matrix(1.0572 0 0 1.03575 -.453 -.317)"/><path fill="url(#f)" d="M15.5 14h-.79l-.28-.27A6.47 6.47 0 0 0 16 9.5 6.5 6.5 0 1 0 9.5 16c1.61 0 3.09-.59 4.23-1.57l.27.28v.79l5 4.99c.528-.963.528-.963 1.49-1.49zm-6 0C7.01 14 5 11.99 5 9.5S7.01 5 9.5 5 14 7.01 14 9.5 11.99 14 9.5 14" filter="url(#g)"/><g fill="url(#h)" filter="url(#j)" transform="matrix(.13257 0 0 .13257 6.992 5.517)"><path fill="url(#k)" d="M19.565 18.043v-14c0-1.1-.9-2-2-2h-14c-1.1 0-2 .9-2 2v14c0 1.1.9 2 2 2h14c1.1 0 2-.9 2-2m-12.5-5.5 2.5 3.01 3.5-4.51 4.5 6h-14z"/></g><g filter="url(#l)" transform="matrix(.1156 0 0 .14914 10.611 7.098)"><path fill="url(#q)" d="m18 4 2 4h-3l-2-4h-2l2 4h-3l-2-4H8l2 4H7L5 4H4c-1.1 0-1.99.9-1.99 2L2 18c0 1.1.9 2 2 2h16c1.1 0 2-.9 2-2V4z"/></g><g filter="url(#r)" transform="translate(5.01 6.453)scale(.03416)"><path fill="url(#s)" d="M91.39 67.993H37.057c-4.27 0-7.762 3.507-7.762 7.795v54.565c0 4.287 3.493 7.795 7.762 7.795H91.39c4.269 0 7.761-3.508 7.761-7.795V75.788c0-4.288-3.492-7.795-7.761-7.795m-19.405 54.565H44.82v-7.795h27.166zm11.643-15.59h-38.81v-7.795h38.81zm0-15.59h-38.81v-7.795h38.81z"/></g><path fill="url(#t)" d="M11.56 10.745H9.665a.314.314 0 0 0-.316.31v1.865c0 .171.143.311.316.311h1.897c.174 0 .316-.14.316-.31v-1.866c0-.17-.142-.31-.316-.31m-.316.777h-.474v.854a.39.39 0 0 1-.395.389c-.218 0-.395-.174-.395-.389s.177-.388.395-.388c.09 0 .17.03.237.079v-.856h.632z" filter="url(#u)"/><g filter="url(#v)" transform="matrix(.0503 -.03312 .04943 .038 7.71 11.148)"/><g stroke="#05070a" stroke-linecap="round" stroke-linejoin="bevel" stroke-width=".171" filter="url(#e)"><g fill="#6c5353"><path d="m7.272 8.09-1.052.691M8.342 8.881l.978-.707M8.321 11.09l1.105-.238M12.923 10.081l-1.153.742M9.513 8.09l1.37-.265M6.148 11.139l3.245 1.94M9.5 5.858l3.547 1.837M9.664 10.745l1.267-.728M6.058 8.889l-.87-.681M7.258 5.886l-.176-.185M9.5 5.858l.399-.84M11.761 13.16l.166.132M9.508 13.19l-.784.744M6.047 11.041l-.672.264M9.455 8.137l.094 2.63M13.154 7.695l.377-.201"/></g><path fill="#161a1f" d="m13.067 10.017.82.496"/></g><path fill="url(#w)" d="M35.066 14.15q0 .085-.026.161t-.069.137-.1.106-.12.068q.134.05.198.238l.078.22q.044.128.129.19-.039.052-.116.087t-.17.035-.145-.053-.096-.185l-.093-.27q-.028-.078-.076-.12t-.143-.041h-.106v.646q-.083.015-.207.015t-.204-.015v-1.751l.018-.018.379-.008q.153-.003.241-.003.142 0 .258.035t.198.105.126.175.046.246m-.855-.25v.505q.116 0 .199-.004.082-.003.133-.03.05-.028.076-.077t.026-.142q0-.25-.243-.25h-.107zm2.1.955h-.675q.005.116.06.18.054.065.178.065.062 0 .143-.018t.187-.06q.086.088.106.238-.206.147-.506.147-.163 0-.272-.051-.11-.052-.179-.145t-.096-.22-.029-.276q0-.144.035-.267t.106-.213.18-.142.258-.052q.124 0 .223.042.1.04.17.113.069.073.106.173.038.1.038.22 0 .157-.034.266m-.677-.28h.34v-.028q0-.095-.042-.157t-.128-.062q-.083 0-.123.058t-.047.19m1.944.28.065.188q.051.17.124.22-.114.126-.272.126-.085 0-.129-.04t-.077-.14l-.078-.223q-.025-.08-.059-.107t-.09-.027q-.057 0-.08.003v.514q-.086.015-.197.015-.11 0-.196-.015v-1.883l.018-.018h.155q.121 0 .17.054.05.055.05.189v.81h.04q.047 0 .073-.046l.134-.258q.073-.147.228-.147.075 0 .224.005l.016.02-.199.385q-.052.098-.132.153.155.056.212.222m1.25-.661q.186.186.186.532 0 .154-.04.281t-.116.216-.188.136q-.11.048-.255.048t-.255-.049q-.11-.049-.186-.138t-.115-.216-.038-.278q0-.155.038-.28.04-.126.114-.216t.186-.14q.111-.049.256-.049.255 0 .413.153m-.41.15q-.058 0-.092.027-.035.027-.056.073-.02.047-.028.107t-.008.13q0 .11.006.188.007.079.026.132.02.052.055.078.034.026.091.026.114 0 .15-.1.036-.099.036-.282 0-.186-.036-.283t-.145-.097m.712.872q.008-.085.053-.17t.107-.14q.276.168.524.168.109 0 .159-.049t.05-.121q0-.122-.162-.191l-.305-.13q-.178-.08-.274-.192-.095-.112-.095-.285 0-.119.048-.217.047-.098.134-.17.086-.073.205-.113t.263-.04q.29 0 .584.147-.013.2-.14.31-.263-.126-.464-.126-.103 0-.155.046-.052.047-.052.106 0 .1.153.163l.31.131q.196.083.293.212.096.13.096.3 0 .121-.044.222-.043.1-.13.174-.086.074-.216.115-.129.041-.302.041-.335 0-.64-.19m2.559-.361h-.674q.005.116.06.18.054.065.177.065.062 0 .144-.018t.187-.06q.085.088.106.238-.207.147-.506.147-.163 0-.273-.051-.11-.052-.178-.145t-.097-.22-.028-.276q0-.144.035-.267t.106-.213q.07-.09.18-.142t.257-.052q.124 0 .224.042.1.04.169.113.07.073.107.173t.037.22q0 .157-.033.266m-.677-.28h.341v-.028q0-.095-.042-.157t-.128-.062q-.083 0-.123.058t-.048.19m2.05.608q-.012.054-.048.116t-.075.09q-.181-.005-.28-.137-.167.155-.363.155-.101 0-.176-.032t-.126-.087-.078-.125q-.026-.07-.026-.148 0-.111.04-.195t.11-.14.163-.084.199-.028l.104.001.079.004v-.049q0-.162-.168-.162-.108 0-.38.082-.077-.09-.098-.281.062-.024.138-.044t.157-.036.157-.025.14-.009q.09 0 .174.026t.147.079.1.137.038.2v.524q0 .119.073.168m-.78-.194q0 .121.14.121.073 0 .163-.075v-.206l-.087-.004-.053-.001q-.162 0-.162.165m.933-.723q.013-.052.049-.115t.072-.092q.238.018.33.235.099-.232.324-.232.067 0 .17.02 0 .08-.027.19t-.074.188q-.044-.016-.131-.026-.13 0-.212.131v.804q-.085.015-.2.015t-.203-.015v-.835q0-.193-.098-.268m1.707.385v-.034q0-.144-.031-.21t-.116-.066q-.09 0-.127.089-.036.089-.036.296 0 .103.014.173t.041.112.069.062.098.02q.06 0 .132-.027.072-.025.155-.082.023.013.047.037.025.025.046.056.02.03.036.066.015.034.023.065-.085.09-.222.145t-.279.054q-.276 0-.423-.18-.148-.181-.148-.514 0-.17.048-.297t.127-.21.18-.123.213-.042q.114 0 .208.031.095.031.163.088t.106.136q.037.078.037.174 0 .108-.063.152t-.156.044q-.078 0-.142-.015m1.683-.135v.53q0 .173.065.255-.098.088-.238.088-.134 0-.183-.062-.05-.062-.05-.188v-.55q0-.088-.022-.13-.024-.04-.09-.04-.04 0-.088.02-.05.02-.101.067v.863q-.085.015-.196.015t-.197-.015v-1.883l.018-.018h.155q.124 0 .172.054t.048.189v.488q.173-.142.346-.142t.267.125.094.334" transform="matrix(7.54757 0 0 7.54757 -232.034 -97.515)"/></g></svg>