<svg xmlns="http://www.w3.org/2000/svg" xmlns:xlink="http://www.w3.org/1999/xlink" width="1634.845" height="519.026"><linearGradient id="c" gradientUnits="userSpaceOnUse"><stop offset="0" stop-color="#2d394a"/><stop offset="1" stop-color="#42926f"/></linearGradient><linearGradient id="a" gradientUnits="userSpaceOnUse"><stop offset="0" stop-color="#191d23"/><stop offset="1" stop-color="#05070a"/></linearGradient><linearGradient xlink:href="#a" id="g" x1="3" x2="20.49" y1="3" y2="20.49"/><filter id="d" width="1.004" height="1.014" x="-.002" y="-.007" color-interpolation-filters="sRGB"><feGaussianBlur result="blur" stdDeviation=".05"/><feComposite in="SourceGraphic" in2="blur" operator="in" result="composite1"/><feComposite in="composite1" in2="composite1" operator="in" result="composite2"/></filter><linearGradient id="i" x1="3" x2="21" y1="3" y2="21" gradientUnits="userSpaceOnUse"><stop offset="0" stop-color="#494e8f"/><stop offset="1" stop-color="#6572cc"/></linearGradient><linearGradient xlink:href="#a" id="l" x1="1.565" x2="19.565" y1="2.043" y2="20.043"/><linearGradient xlink:href="#a" id="r" x1="2.007" x2="22" y1="4.023" y2="20"/><linearGradient xlink:href="#a" id="t" x1="29.295" x2="99.151" y1="67.993" y2="138.148"/><linearGradient xlink:href="#a" id="u" x1="9.445" x2="11.759" y1="10.832" y2="13.162"/><filter id="f" width="1.054" height="1.054" x="-.027" y="-.027" color-interpolation-filters="sRGB"><feGaussianBlur result="blur" stdDeviation=".01"/><feComposite in="SourceGraphic" in2="blur" operator="in" result="composite1"/><feComposite in="composite1" in2="composite1" operator="in" result="fbSourceGraphic"/><feColorMatrix in="fbSourceGraphic" result="fbSourceGraphicAlpha" values="0 0 0 -1 0 0 0 0 -1 0 0 0 0 -1 0 0 0 0 1 0"/><feColorMatrix in="fbSourceGraphic" values="1 0 0 0 0 0 1 0 0 0 0 0 1 0 0 0 0 0 1 1"/><feColorMatrix result="colormatrix2" type="hueRotate" values="0"/><feColorMatrix in="colormatrix2" result="colormatrix3" values="-1 0 0 0 1 0 -1 0 0 1 0 0 -1 0 1 0 0 0 1 0"/><feBlend in="colormatrix3" in2="colormatrix2" mode="darken" result="blend1"/><feBlend in2="blend1" mode="screen" result="blend2"/><feComposite in2="fbSourceGraphic" operator="in" result="fbSourceGraphic"/><feColorMatrix in="fbSourceGraphic" result="fbSourceGraphicAlpha" values="0 0 0 -1 0 0 0 0 -1 0 0 0 0 -1 0 0 0 0 1 0"/><feColorMatrix in="fbSourceGraphic" values="1 0 0 0 0 0 1 0 0 0 0 0 1 0 0 0 0 0 1 1"/><feColorMatrix result="colormatrix2" type="hueRotate" values="0"/><feColorMatrix in="colormatrix2" result="colormatrix3" values="-1 0 0 0 1 0 -1 0 0 1 0 0 -1 0 1 0 0 0 1 0"/><feBlend in="colormatrix3" in2="colormatrix2" mode="darken" result="blend1"/><feBlend in2="blend1" mode="screen" result="blend2"/><feComposite in2="fbSourceGraphic" operator="in"/></filter><filter id="w" color-interpolation-filters="sRGB"><feColorMatrix values="1 0 0 0 0 0 1 0 0 0 0 0 1 0 0 0 0 0 1 1"/><feColorMatrix result="colormatrix2" type="hueRotate" values="0"/><feColorMatrix in="colormatrix2" result="colormatrix3" values="-1 0 0 0 1 0 -1 0 0 1 0 0 -1 0 1 0 0 0 1 0"/><feBlend in="colormatrix3" in2="colormatrix2" mode="darken" result="blend1"/><feBlend in2="blend1" mode="screen" result="blend2"/><feComposite in2="SourceGraphic" operator="in"/></filter><filter id="v" width="1" height="1" x="0" y="0" color-interpolation-filters="sRGB"><feColorMatrix values="1 0 0 0 0 0 1 0 0 0 0 0 1 0 0 0 0 0 1 1"/><feColorMatrix result="colormatrix2" type="hueRotate" values="0"/><feColorMatrix in="colormatrix2" result="colormatrix3" values="-1 0 0 0 1 0 -1 0 0 1 0 0 -1 0 1 0 0 0 1 0"/><feBlend in="colormatrix3" in2="colormatrix2" mode="darken" result="blend1"/><feBlend in2="blend1" mode="screen" result="blend2"/><feComposite in2="SourceGraphic" operator="in"/></filter><filter id="s" width="1" height="1" x="0" y="0" color-interpolation-filters="sRGB"><feColorMatrix values="1 0 0 0 0 0 1 0 0 0 0 0 1 0 0 0 0 0 1 1"/><feColorMatrix result="colormatrix2" type="hueRotate" values="0"/><feColorMatrix in="colormatrix2" result="colormatrix3" values="-1 0 0 0 1 0 -1 0 0 1 0 0 -1 0 1 0 0 0 1 0"/><feBlend in="colormatrix3" in2="colormatrix2" mode="darken" result="blend1"/><feBlend in2="blend1" mode="screen" result="blend2"/><feComposite in2="SourceGraphic" operator="in"/></filter><filter id="m" width="1" height="1" x="0" y="0" color-interpolation-filters="sRGB"><feColorMatrix values="1 0 0 0 0 0 1 0 0 0 0 0 1 0 0 0 0 0 1 1"/><feColorMatrix result="colormatrix2" type="hueRotate" values="0"/><feColorMatrix in="colormatrix2" result="colormatrix3" values="-1 0 0 0 1 0 -1 0 0 1 0 0 -1 0 1 0 0 0 1 0"/><feBlend in="colormatrix3" in2="colormatrix2" mode="darken" result="blend1"/><feBlend in2="blend1" mode="screen" result="blend2"/><feComposite in2="SourceGraphic" operator="in"/></filter><filter id="k" width="1" height="1" x="0" y="0" color-interpolation-filters="sRGB"><feColorMatrix values="1 0 0 0 0 0 1 0 0 0 0 0 1 0 0 0 0 0 1 1"/><feColorMatrix result="colormatrix2" type="hueRotate" values="0"/><feColorMatrix in="colormatrix2" result="colormatrix3" values="-1 0 0 0 1 0 -1 0 0 1 0 0 -1 0 1 0 0 0 1 0"/><feBlend in="colormatrix3" in2="colormatrix2" mode="darken" result="blend1"/><feBlend in2="blend1" mode="screen" result="blend2"/><feComposite in2="SourceGraphic" operator="in"/></filter><filter id="h" width="1" height="1" x="0" y="0" color-interpolation-filters="sRGB"><feColorMatrix values="1 0 0 0 0 0 1 0 0 0 0 0 1 0 0 0 0 0 1 1"/><feColorMatrix result="colormatrix2" type="hueRotate" values="0"/><feColorMatrix in="colormatrix2" result="colormatrix3" values="-1 0 0 0 1 0 -1 0 0 1 0 0 -1 0 1 0 0 0 1 0"/><feBlend in="colormatrix3" in2="colormatrix2" mode="darken" result="blend1"/><feBlend in2="blend1" mode="screen" result="blend2"/><feComposite in2="SourceGraphic" operator="in"/></filter><linearGradient id="e" x1="4.75" x2="14.243" y1="9.503" y2="9.503" gradientUnits="userSpaceOnUse"><stop offset="0" stop-color="#2d394a"/><stop offset="1" stop-color="#35475e"/></linearGradient><linearGradient xlink:href="#c" id="x" x1="34.294" x2="41.845" y1="13.895" y2="13.908"/><linearGradient xlink:href="#c" id="y" x1="31.147" x2="38.698" y1="15.1" y2="15.114"/><g filter="url(#d)" transform="translate(-86.151 -84.309)scale(29.27387)"><circle cx="9.497" cy="9.503" r="4.503" fill="url(#e)" filter="url(#f)" transform="matrix(1.0572 0 0 1.03575 -.453 -.317)"/><path fill="url(#g)" d="M15.5 14h-.79l-.28-.27A6.47 6.47 0 0 0 16 9.5 6.5 6.5 0 1 0 9.5 16c1.61 0 3.09-.59 4.23-1.57l.27.28v.79l5 4.99c.528-.963.528-.963 1.49-1.49zm-6 0C7.01 14 5 11.99 5 9.5S7.01 5 9.5 5 14 7.01 14 9.5 11.99 14 9.5 14" filter="url(#h)"/><g fill="url(#i)" filter="url(#k)" transform="matrix(.13257 0 0 .13257 6.992 5.517)"><path fill="url(#l)" d="M19.565 18.043v-14c0-1.1-.9-2-2-2h-14c-1.1 0-2 .9-2 2v14c0 1.1.9 2 2 2h14c1.1 0 2-.9 2-2m-12.5-5.5 2.5 3.01 3.5-4.51 4.5 6h-14z"/></g><g filter="url(#m)" transform="matrix(.1156 0 0 .14914 10.611 7.098)"><path fill="url(#r)" d="m18 4 2 4h-3l-2-4h-2l2 4h-3l-2-4H8l2 4H7L5 4H4c-1.1 0-1.99.9-1.99 2L2 18c0 1.1.9 2 2 2h16c1.1 0 2-.9 2-2V4z"/></g><g filter="url(#s)" transform="translate(5.01 6.453)scale(.03416)"><path fill="url(#t)" d="M91.39 67.993H37.057c-4.27 0-7.762 3.507-7.762 7.795v54.565c0 4.287 3.493 7.795 7.762 7.795H91.39c4.269 0 7.761-3.508 7.761-7.795V75.788c0-4.288-3.492-7.795-7.761-7.795m-19.405 54.565H44.82v-7.795h27.166zm11.643-15.59h-38.81v-7.795h38.81zm0-15.59h-38.81v-7.795h38.81z"/></g><path fill="url(#u)" d="M11.56 10.745H9.665a.314.314 0 0 0-.316.31v1.865c0 .171.143.311.316.311h1.897c.174 0 .316-.14.316-.31v-1.866c0-.17-.142-.31-.316-.31m-.316.777h-.474v.854a.39.39 0 0 1-.395.389c-.218 0-.395-.174-.395-.389s.177-.388.395-.388c.09 0 .17.03.237.079v-.856h.632z" filter="url(#v)"/><g filter="url(#w)" transform="matrix(.0503 -.03312 .04943 .038 7.71 11.148)"/><g stroke="#05070a" stroke-linecap="round" stroke-linejoin="bevel" stroke-width=".171" filter="url(#f)"><g fill="#6c5353"><path d="m7.272 8.09-1.052.691M8.342 8.881l.978-.707M8.321 11.09l1.105-.238M12.923 10.081l-1.153.742M9.513 8.09l1.37-.265M6.148 11.139l3.245 1.94M9.5 5.858l3.547 1.837M9.664 10.745l1.267-.728M6.058 8.889l-.87-.681M7.258 5.886l-.176-.185M9.5 5.858l.399-.84M11.761 13.16l.166.132M9.508 13.19l-.784.744M6.047 11.041l-.672.264M9.455 8.137l.094 2.63M13.154 7.695l.377-.201"/></g><path fill="#161a1f" d="m13.067 10.017.82.496"/></g><path fill="url(#x)" d="M35.04 13.692a.3.3 0 0 1-.055.176.3.3 0 0 1-.13.103q.078.03.117.14l.045.13q.027.076.077.112a.2.2 0 0 1-.069.051.24.24 0 0 1-.1.02.11.11 0 0 1-.086-.03.3.3 0 0 1-.056-.11l-.055-.16a.2.2 0 0 0-.045-.07q-.028-.024-.084-.024h-.063v.38a1 1 0 0 1-.121.01 1 1 0 0 1-.12-.01v-1.032l.01-.01.365-.006q.084 0 .153.02a.3.3 0 0 1 .116.062.3.3 0 0 1 .075.104q.026.062.026.144m-.504-.148v.299q.069 0 .118-.002a.2.2 0 0 0 .078-.019q.03-.015.045-.045a.15.15 0 0 0 .015-.083q0-.148-.143-.148h-.063zm1.238.564h-.397a.17.17 0 0 0 .035.106q.032.039.105.038a.4.4 0 0 0 .084-.01 1 1 0 0 0 .11-.035.24.24 0 0 1 .063.14.5.5 0 0 1-.298.087.4.4 0 0 1-.16-.03.3.3 0 0 1-.106-.086.34.34 0 0 1-.057-.13.74.74 0 0 1 .004-.32.4.4 0 0 1 .062-.126.3.3 0 0 1 .107-.083.35.35 0 0 1 .151-.03.3.3 0 0 1 .132.023.3.3 0 0 1 .163.17q.022.06.022.129a.5.5 0 0 1-.02.157m-.399-.165h.201v-.016a.16.16 0 0 0-.025-.093q-.026-.037-.075-.037-.05 0-.073.034a.23.23 0 0 0-.028.112m1.147.165.038.111q.03.1.073.13a.2.2 0 0 1-.16.074q-.05 0-.076-.024a.2.2 0 0 1-.046-.083l-.045-.13q-.015-.048-.035-.064a.1.1 0 0 0-.054-.016q-.033 0-.047.002v.303a.651.651 0 0 1-.231 0V13.3l.01-.01h.092q.071 0 .1.031.03.032.03.111v.478h.024q.027 0 .042-.027l.08-.152q.042-.087.133-.087.045 0 .133.003l.009.012-.117.227a.24.24 0 0 1-.078.09q.092.033.125.13zm.737-.39q.11.11.11.314 0 .09-.024.166a.4.4 0 0 1-.069.127.3.3 0 0 1-.11.08.4.4 0 0 1-.15.029.4.4 0 0 1-.15-.03.3.3 0 0 1-.11-.08.4.4 0 0 1-.068-.128.6.6 0 0 1-.023-.164q0-.091.023-.166a.4.4 0 0 1 .067-.127.3.3 0 0 1 .11-.082.4.4 0 0 1 .15-.029q.15 0 .244.09m-.242.088a.1.1 0 0 0-.054.016.1.1 0 0 0-.033.044.2.2 0 0 0-.017.063.294.294 0 0 0 .015.265q.01.03.032.046.02.015.054.016.066 0 .088-.06c.022-.06.021-.094.021-.166a.5.5 0 0 0-.021-.167q-.022-.057-.085-.057" transform="matrix(7.33338 0 0 7.33338 -225.33 -94.456)"/><path fill="url(#y)" d="M34.29 15.527a.3.3 0 0 1 .03-.1.3.3 0 0 1 .064-.083.6.6 0 0 0 .31.099q.063 0 .093-.03.03-.027.03-.07 0-.072-.097-.113l-.18-.076a.45.45 0 0 1-.16-.114.25.25 0 0 1-.057-.168.29.29 0 0 1 .107-.229.4.4 0 0 1 .121-.066.5.5 0 0 1 .156-.023q.17 0 .344.086a.25.25 0 0 1-.082.183.65.65 0 0 0-.274-.074q-.061 0-.092.027a.08.08 0 0 0-.03.062q0 .06.09.096l.182.078a.4.4 0 0 1 .173.125q.057.076.057.176a.3.3 0 0 1-.026.131.3.3 0 0 1-.077.103.4.4 0 0 1-.127.068.7.7 0 0 1-.556-.088m1.508-.214h-.397a.17.17 0 0 0 .035.107q.031.038.105.038a.4.4 0 0 0 .085-.01 1 1 0 0 0 .11-.036.24.24 0 0 1 .062.14.5.5 0 0 1-.298.087.4.4 0 0 1-.16-.03.3.3 0 0 1-.106-.085.34.34 0 0 1-.057-.13.74.74 0 0 1 .004-.32.4.4 0 0 1 .062-.126.3.3 0 0 1 .107-.084.35.35 0 0 1 .152-.03.3.3 0 0 1 .131.024.3.3 0 0 1 .163.17q.022.059.022.129a.5.5 0 0 1-.02.156m-.398-.164h.2v-.017a.16.16 0 0 0-.025-.093q-.024-.036-.075-.036-.049 0-.072.034a.23.23 0 0 0-.028.112m1.209.358a.26.26 0 0 1-.074.122.2.2 0 0 1-.164-.081.3.3 0 0 1-.215.091.3.3 0 0 1-.103-.019.21.21 0 0 1-.12-.125.3.3 0 0 1-.016-.087q0-.066.024-.115a.2.2 0 0 1 .065-.082.3.3 0 0 1 .096-.05.4.4 0 0 1 .117-.017l.108.003v-.028q0-.096-.1-.096a1 1 0 0 0-.223.048.3.3 0 0 1-.058-.166 1 1 0 0 1 .174-.047 1 1 0 0 1 .175-.02q.053 0 .103.016.05.015.086.046a.2.2 0 0 1 .06.08.3.3 0 0 1 .022.119v.309q0 .07.043.099m-.46-.114q0 .07.082.071.042 0 .096-.044v-.122l-.051-.002h-.031q-.096 0-.096.097m.55-.427a.3.3 0 0 1 .07-.122.22.22 0 0 1 .196.139q.057-.137.19-.137.04 0 .1.012a.5.5 0 0 1-.059.222.4.4 0 0 0-.077-.015q-.077 0-.125.078v.473a.693.693 0 0 1-.238 0v-.491q0-.116-.058-.159m1.006.227v-.02a.3.3 0 0 0-.018-.124q-.019-.039-.069-.039-.053 0-.075.053c-.022.053-.02.093-.02.174q0 .06.007.102.009.042.025.067.015.024.04.036a.14.14 0 0 0 .058.012q.035 0 .078-.016a.4.4 0 0 0 .091-.048q.015.007.028.022a.2.2 0 0 1 .048.071q.008.02.014.04a.4.4 0 0 1-.131.084.4.4 0 0 1-.164.032.3.3 0 0 1-.25-.106.47.47 0 0 1-.087-.303q0-.101.028-.175a.4.4 0 0 1 .075-.124.3.3 0 0 1 .106-.073.3.3 0 0 1 .126-.024q.068 0 .123.018a.3.3 0 0 1 .096.052.23.23 0 0 1 .084.183q0 .063-.037.09a.16.16 0 0 1-.092.025.4.4 0 0 1-.084-.009m.993-.08v.313q0 .102.038.15a.2.2 0 0 1-.14.053q-.08 0-.109-.037-.029-.036-.029-.111v-.324a.2.2 0 0 0-.013-.077q-.014-.024-.054-.024a.1.1 0 0 0-.051.012.2.2 0 0 0-.06.04v.508a.651.651 0 0 1-.231 0v-1.11l.01-.01h.092q.073 0 .101.032t.028.11v.289a.32.32 0 0 1 .204-.084q.102 0 .158.074a.32.32 0 0 1 .056.197" transform="matrix(7.33338 0 0 7.33338 -225.33 -94.456)"/></g></svg>